<svg width="1280" height="720" xmlns="http://www.w3.org/2000/svg" xmlns:xlink="http://www.w3.org/1999/xlink" overflow="hidden"><defs><clipPath id="clip0"><rect x="0" y="0" width="1280" height="720"/></clipPath><linearGradient x1="43" y1="141.5" x2="43" y2="181.5" gradientUnits="userSpaceOnUse" spreadMethod="reflect" id="fill1"><stop offset="0" stop-color="#71A6DB"/><stop offset="0.5" stop-color="#559BDB"/><stop offset="1" stop-color="#438AC9"/></linearGradient><linearGradient x1="115" y1="127.5" x2="115" y2="167.5" gradientUnits="userSpaceOnUse" spreadMethod="reflect" id="fill2"><stop offset="0" stop-color="#6DCAD5"/><stop offset="0.5" stop-color="#4FC7D5"/><stop offset="1" stop-color="#3EB6C4"/></linearGradient><linearGradient x1="189" y1="111.5" x2="189" y2="151.5" gradientUnits="userSpaceOnUse" spreadMethod="reflect" id="fill3"><stop offset="0" stop-color="#69CFB1"/><stop offset="0.5" stop-color="#4ACEAA"/><stop offset="1" stop-color="#3ABD99"/></linearGradient><linearGradient x1="263.5" y1="96.5001" x2="263.5" y2="136.5" gradientUnits="userSpaceOnUse" spreadMethod="reflect" id="fill4"><stop offset="0" stop-color="#65C884"/><stop offset="0.5" stop-color="#45C772"/><stop offset="1" stop-color="#36B763"/></linearGradient><linearGradient x1="339" y1="81.5001" x2="339" y2="121.5" gradientUnits="userSpaceOnUse" spreadMethod="reflect" id="fill5"><stop offset="0" stop-color="#64C162"/><stop offset="0.5" stop-color="#44BF41"/><stop offset="1" stop-color="#36AF33"/></linearGradient><linearGradient x1="410" y1="65.5001" x2="410" y2="105.5" gradientUnits="userSpaceOnUse" spreadMethod="reflect" id="fill6"><stop offset="0" stop-color="#81B861"/><stop offset="0.5" stop-color="#6FB242"/><stop offset="1" stop-color="#61A235"/></linearGradient><linearGradient x1="13" y1="0" x2="13" y2="67" gradientUnits="userSpaceOnUse" spreadMethod="reflect" id="fill7"><stop offset="0" stop-color="#81B861"/><stop offset="0.5" stop-color="#6FB242"/><stop offset="1" stop-color="#61A235"/></linearGradient></defs><g clip-path="url(#clip0)"><rect x="0" y="0" width="1280" height="720" fill="#FFFFFF"/><path d="M77.5 141.5 77.5 147.944 14.948 147.944 14.948 181.5 8.50001 181.5 8.50001 141.5Z" stroke="#5B9BD5" stroke-width="0.666667" stroke-miterlimit="8" fill="url(#fill1)" fill-rule="evenodd"/><text font-family="Noto Sans,Noto Sans_MSFontService,sans-serif" font-weight="400" font-size="11" transform="translate(21.1323 162)">Glossar</text><path d="M152.5 127.5 152.5 133.944 83.948 133.944 83.948 167.5 77.5 167.5 77.5 127.5Z" stroke="#55C3CF" stroke-width="0.666667" stroke-miterlimit="8" fill="url(#fill2)" fill-rule="evenodd"/><text font-family="Noto Sans,Noto Sans_MSFontService,sans-serif" font-weight="400" font-size="11" transform="translate(85.944 148)">Folksonomie</text><path d="M225.5 111.5 225.5 117.944 158.948 117.944 158.948 151.5 152.5 151.5 152.5 111.5Z" stroke="#50C8A7" stroke-width="0.666667" stroke-miterlimit="8" fill="url(#fill3)" fill-rule="evenodd"/><text font-family="Noto Sans,Noto Sans_MSFontService,sans-serif" font-weight="400" font-size="11" transform="translate(162.778 133)">Taxonomie</text><path d="M300.5 96.5001 300.5 102.944 232.948 102.944 232.948 136.5 226.5 136.5 226.5 96.5001Z" stroke="#4BC174" stroke-width="0.666667" stroke-miterlimit="8" fill="url(#fill4)" fill-rule="evenodd"/><text font-family="Noto Sans,Noto Sans_MSFontService,sans-serif" font-weight="400" font-size="11" transform="translate(236.199 117)">Theasaurus</text><path d="M376.5 81.5001 376.5 87.9441 307.948 87.9441 307.948 121.5 301.5 121.5 301.5 81.5001Z" stroke="#4ABA46" stroke-width="0.666667" stroke-miterlimit="8" fill="url(#fill5)" fill-rule="evenodd"/><text font-family="Noto Sans,Noto Sans_MSFontService,sans-serif" font-weight="400" font-size="11" transform="translate(311.869 102)">Topic <tspan font-size="11" x="29.5933" y="0">Map</tspan></text><path d="M443.5 65.5001 443.5 71.9441 382.948 71.9441 382.948 105.5 376.5 105.5 376.5 65.5001Z" stroke="#70AD47" stroke-width="0.666667" stroke-miterlimit="8" fill="url(#fill6)" fill-rule="evenodd"/><text font-family="Noto Sans,Noto Sans_MSFontService,sans-serif" font-weight="400" font-size="11" transform="translate(387.788 87)">Ontologie</text><path d="M0 0 6.18257 0 6.18257 60.1501 26 60.1501 26 67 0 67Z" stroke="#70AD47" stroke-width="0.666667" stroke-miterlimit="8" fill="url(#fill7)" fill-rule="evenodd" transform="matrix(1.83697e-16 1 1 -1.83697e-16 383.5 65.5001)"/><path d="M0.101291-0.489633 459.238 94.4928 459.035 95.4721-0.101291 0.489633ZM458.643 90.7956 465.667 96.3333 457.022 98.6297Z" transform="matrix(1 0 0 -1 7.50005 182.833)"/><text font-family="Noto Sans,Noto Sans_MSFontService,sans-serif" font-weight="400" font-size="9" transform="matrix(0.976933 -0.213547 0.213547 0.976933 170.861 167)">Semantische Reichhaltigkeit</text></g></svg>