<svg width="1280" height="720" xmlns="http://www.w3.org/2000/svg" xmlns:xlink="http://www.w3.org/1999/xlink" overflow="hidden"><defs><clipPath id="clip0"><rect x="0" y="0" width="1280" height="720"/></clipPath><clipPath id="clip1"><rect x="506" y="281" width="26" height="26"/></clipPath><clipPath id="clip2"><rect x="506" y="281" width="26" height="26"/></clipPath><clipPath id="clip3"><rect x="506" y="281" width="26" height="26"/></clipPath><clipPath id="clip4"><rect x="680" y="249" width="39" height="39"/></clipPath><clipPath id="clip5"><rect x="680" y="249" width="39" height="39"/></clipPath><clipPath id="clip6"><rect x="680" y="249" width="39" height="39"/></clipPath><clipPath id="clip7"><rect x="535" y="233" width="37" height="36"/></clipPath><clipPath id="clip8"><rect x="535" y="233" width="37" height="36"/></clipPath><clipPath id="clip9"><rect x="535" y="233" width="37" height="36"/></clipPath><clipPath id="clip10"><rect x="585" y="226" width="45" height="46"/></clipPath><clipPath id="clip11"><rect x="585" y="226" width="45" height="46"/></clipPath><clipPath id="clip12"><rect x="585" y="226" width="45" height="46"/></clipPath></defs><g clip-path="url(#clip0)"><rect x="0" y="0" width="1280" height="720" fill="#FFFFFF"/><rect x="541.5" y="346.96" width="160.54" height="46.54" fill="#8FAADC"/><path d="M702.04 346.96 731.5 317.5 731.5 364.04 702.04 393.5Z" fill="#7389B1" fill-rule="evenodd"/><path d="M541.5 346.96 570.96 317.5 731.5 317.5 702.04 346.96Z" fill="#A5BBE3" fill-rule="evenodd"/><path d="M541.5 346.96 570.96 317.5 731.5 317.5 731.5 364.04 702.04 393.5 541.5 393.5ZM541.5 346.96 702.04 346.96 731.5 317.5M702.04 346.96 702.04 393.5" stroke="#000000" stroke-width="0.666667" stroke-miterlimit="8" fill="none" fill-rule="evenodd"/><text font-family="Calibri,Calibri_MSFontService,sans-serif" font-weight="400" font-size="24" transform="translate(553.204 377)">ComeIn<tspan font-size="24" x="75.3333" y="0">-</tspan><tspan font-size="24" x="82.6666" y="0">Paket</tspan></text><g clip-path="url(#clip1)"><g clip-path="url(#clip2)"><g clip-path="url(#clip3)"><path d="M513.571 294.322C513.571 293.622 513.084 293.204 512.227 293.204 511.877 293.204 511.639 293.238 511.515 293.272L511.515 295.52C511.662 295.553 511.843 295.565 512.091 295.565 513.006 295.565 513.571 295.102 513.571 294.322Z"/><path d="M518.881 293.227C518.496 293.227 518.248 293.261 518.101 293.294L518.101 298.276C518.248 298.31 518.485 298.31 518.7 298.31 520.259 298.321 521.275 297.463 521.275 295.644 521.287 294.062 520.36 293.227 518.881 293.227Z"/><path d="M529.056 290.3 528.431 290.3 528.431 287.288C528.431 287.269 528.428 287.25 528.426 287.231 528.425 287.111 528.387 286.994 528.305 286.901L523.292 281.174C523.29 281.173 523.289 281.172 523.288 281.171 523.258 281.137 523.223 281.11 523.186 281.086 523.176 281.078 523.165 281.072 523.153 281.066 523.121 281.048 523.087 281.034 523.053 281.024 523.043 281.021 523.035 281.017 523.025 281.015 522.987 281.006 522.948 281 522.908 281L510.588 281C510.026 281 509.569 281.458 509.569 282.02L509.569 290.3 508.944 290.3C508.14 290.3 507.487 290.952 507.487 291.757L507.487 299.336C507.487 300.14 508.14 300.793 508.944 300.793L509.569 300.793 509.569 305.98C509.569 306.542 510.026 307 510.588 307L527.412 307C527.974 307 528.431 306.542 528.431 305.98L528.431 300.793 529.056 300.793C529.86 300.793 530.513 300.14 530.513 299.336L530.513 291.757C530.513 290.952 529.86 290.3 529.056 290.3ZM510.588 282.02 522.398 282.02 522.398 287.236C522.398 287.518 522.627 287.746 522.908 287.746L527.412 287.746 527.412 290.3 510.588 290.3 510.588 282.02ZM523.105 295.587C523.105 297.045 522.574 298.049 521.839 298.671 521.038 299.337 519.818 299.654 518.327 299.654 517.435 299.654 516.802 299.597 516.373 299.541L516.373 292.063C517.005 291.962 517.83 291.905 518.7 291.905 520.145 291.905 521.083 292.165 521.817 292.718 522.608 293.306 523.105 294.243 523.105 295.587ZM509.809 299.575 509.809 292.063C510.34 291.973 511.086 291.905 512.136 291.905 513.198 291.905 513.955 292.108 514.463 292.515 514.949 292.899 515.276 293.532 515.276 294.277 515.276 295.023 515.028 295.656 514.576 296.085 513.988 296.638 513.119 296.887 512.102 296.887 511.876 296.887 511.672 296.875 511.515 296.853L511.515 299.575 509.809 299.575 509.809 299.575ZM527.412 305.704 510.588 305.704 510.588 300.793 527.412 300.793 527.412 305.704ZM528.889 293.373 525.963 293.373 525.963 295.113 528.697 295.113 528.697 296.514 525.963 296.514 525.963 299.575 524.236 299.575 524.236 291.962 528.889 291.962 528.889 293.373Z"/></g></g></g><g clip-path="url(#clip4)"><g clip-path="url(#clip5)"><g clip-path="url(#clip6)"><path d="M696.656 259.969 704.781 265.209 696.656 270.454 696.656 259.969Z"/><path d="M710.875 257.938 710.875 272.562 688.125 272.562 688.125 257.938ZM714.125 273.375 713.312 273.375 713.312 256.719 714.125 256.719C714.574 256.719 714.938 256.355 714.938 255.906 714.938 255.458 714.574 255.094 714.125 255.094L700.312 255.094 700.312 254.281C700.312 253.833 699.949 253.469 699.5 253.469 699.051 253.469 698.688 253.833 698.688 254.281L698.688 255.094 684.875 255.094C684.426 255.094 684.062 255.458 684.062 255.906 684.062 256.355 684.426 256.719 684.875 256.719L685.688 256.719 685.688 273.375 684.875 273.375C684.426 273.375 684.062 273.739 684.062 274.188 684.062 274.636 684.426 275 684.875 275L697.282 275 691.026 281.256C690.708 281.577 690.711 282.095 691.032 282.412 691.353 282.73 691.87 282.727 692.188 282.406L698.688 275.906 698.688 283.125C698.688 283.574 699.051 283.938 699.5 283.938 699.949 283.938 700.312 283.574 700.312 283.125L700.312 275.894 706.812 282.394C707.13 282.711 707.645 282.711 707.962 282.394 708.28 282.076 708.28 281.562 707.962 281.244L701.718 275 714.125 275C714.574 275 714.938 274.636 714.938 274.188 714.938 273.739 714.574 273.375 714.125 273.375Z"/></g></g></g><g clip-path="url(#clip7)"><g clip-path="url(#clip8)"><g clip-path="url(#clip9)"><path d="M29.25 24.6 24.1162 16.4175C24.0244 16.2675 23.8608 16.1765 23.685 16.1775 23.5084 16.1774 23.3441 16.2681 23.25 16.4175L21.75 18.825 24.9675 24.03C25.2398 24.4417 25.2983 24.959 25.125 25.4212L28.7625 25.4212C29.0604 25.4361 29.3139 25.2067 29.3288 24.9088 29.3342 24.8003 29.3067 24.6927 29.25 24.6Z" transform="matrix(1.02778 0 0 1 535 233)"/><path d="M23.6625 24.6488 15.5062 11.3775C15.4016 11.2423 15.2384 11.1656 15.0675 11.1713L15 11.1713 14.9325 11.1713C14.7616 11.1656 14.5984 11.2423 14.4938 11.3775L6.3375 24.6488C6.22196 24.8104 6.20606 25.023 6.29625 25.2 6.38723 25.3604 6.56756 25.4484 6.75 25.4212L23.25 25.4212C23.4324 25.4484 23.6128 25.3604 23.7038 25.2 23.7939 25.023 23.778 24.8104 23.6625 24.6488ZM16.365 17.595 15.0675 18.75 13.77 17.595 11.625 18.8925 15 13.4213 18.285 18.75Z" transform="matrix(1.02778 0 0 1 535 233)"/><path d="M11.25 12C11.25 12.6213 10.7463 13.125 10.125 13.125 9.50368 13.125 9 12.6213 9 12 9 11.3787 9.50368 10.875 10.125 10.875 10.7463 10.875 11.25 11.3787 11.25 12Z" transform="matrix(1.02778 0 0 1 535 233)"/><path d="M5.25 27.75 5.25 9 30.75 9 30.75 27.75ZM33 30 33 6.75 3 6.75 3 30Z" transform="matrix(1.02778 0 0 1 535 233)"/></g></g></g><g clip-path="url(#clip10)"><g clip-path="url(#clip11)"><g clip-path="url(#clip12)"><path d="M10.7812 38.4375 10.7812 6.5625 22.5 6.5625 22.5 16.4062 34.2188 16.4062 34.2188 38.4375 10.7812 38.4375ZM25.3125 7.73438 31.1719 13.5938 25.3125 13.5938 25.3125 7.73438ZM25.3125 3.75 7.96875 3.75 7.96875 41.25 37.0312 41.25 37.0312 14.0625 25.3125 3.75Z" transform="matrix(-1 0 0 1.02222 630 226)"/><path d="M13.5938 21.0938 31.4062 21.0938 31.4062 22.9688 13.5938 22.9688Z" transform="matrix(-1 0 0 1.02222 630 226)"/><path d="M13.5938 17.3438 19.6875 17.3438 19.6875 19.2188 13.5938 19.2188Z" transform="matrix(-1 0 0 1.02222 630 226)"/><path d="M13.5938 24.8438 31.4062 24.8438 31.4062 26.7188 13.5938 26.7188Z" transform="matrix(-1 0 0 1.02222 630 226)"/><path d="M13.5938 28.5938 31.4062 28.5938 31.4062 30.4688 13.5938 30.4688Z" transform="matrix(-1 0 0 1.02222 630 226)"/><path d="M13.5938 32.3438 31.4062 32.3438 31.4062 34.2188 13.5938 34.2188Z" transform="matrix(-1 0 0 1.02222 630 226)"/></g></g></g><path d="M532.532 294.168 537.808 294.671 542.923 295.997 547.721 298.143 552.014 300.858 555.621 304.086 558.411 307.763 560.259 311.65 560.892 315.635 561.517 319.573 561.489 319.482 563.301 323.294 563.264 323.234 566.014 326.796 565.97 326.75 569.595 329.937 569.558 329.909 573.746 332.659 573.695 332.632 578.445 334.694 578.384 334.675 582.104 335.495 581.961 336.146 578.209 335.319 573.404 333.232 569.173 330.453 565.506 327.229 562.714 323.613 560.866 319.725 560.233 315.74 559.608 311.802 559.637 311.893 557.824 308.081 557.859 308.139 555.109 304.514 555.153 304.561 551.59 301.373 551.634 301.407 547.384 298.719 547.426 298.742 542.676 296.617 542.729 296.635 537.666 295.323 537.718 295.332 532.468 294.832ZM581.309 331.667 588.625 336.813 580.119 339.578Z"/><path d="M0.0353974-0.331449 6.50412 0.359386 12.7508 2.25232 18.6137 5.27834 23.8447 9.1228 28.2594 13.6636 31.7334 18.7799 33.9455 24.2786 34.5186 27.0803 34.7076 29.9153 34.8951 32.7278 34.8891 32.6832 35.4516 35.4332 35.4342 35.3756 37.6217 40.8131 37.5883 40.7502 41.0258 45.8127 40.989 45.7676 45.364 50.2676 45.3245 50.2329 50.512 54.1079 50.4628 54.0775 56.2753 57.015 56.2113 56.9905 62.2372 58.606 62.0646 59.25 56.0054 57.6255 50.1363 54.6594 44.9044 50.7513 40.4906 46.2114 37.0166 41.0951 34.8045 35.5964 34.2314 32.7947 34.0424 29.9597 33.8549 27.1472 33.8609 27.1918 33.2984 24.4418 33.3158 24.4994 31.1283 19.0619 31.1617 19.1248 27.7242 14.0623 27.761 14.1074 23.386 9.60736 23.4276 9.6436 18.2401 5.8311 18.2846 5.85871 12.4721 2.85871 12.5283 2.88151 6.34083 1.00651 6.4021 1.01895-0.0353974 0.331449ZM61.3993 54.7792 68.75 59.875 60.2629 62.698Z" transform="matrix(1.83697e-16 1 1 -1.83697e-16 553.5 269.5)"/><path d="M0.0193846-0.332769 6.47524 0.0433 12.76 1.11172 18.6721 2.74698 23.897 4.95025 28.3778 7.47463 31.8702 10.3956 34.11 13.4672 34.7015 15.1102 34.8935 16.7103 35.081 18.2728 35.0636 18.1996 35.6261 19.7621 35.5818 19.6786 37.7693 22.6786 37.7139 22.6193 41.1514 25.4943 41.1011 25.4596 45.5386 27.9596 45.5045 27.9429 50.692 30.1304 50.6522 30.1165 56.4647 31.7415 56.4245 31.7329 62.4664 32.6401 62.3675 33.2994 56.3051 32.3891 50.4524 30.7528 45.228 28.5497 40.7472 26.0254 37.2548 23.1044 35.015 20.0328 34.4235 18.3898 34.2315 16.7897 34.044 15.2272 34.0614 15.3004 33.4989 13.7379 33.5432 13.8214 31.3557 10.8214 31.4111 10.8807 27.9736 8.00569 28.0239 8.04042 23.5864 5.54042 23.6205 5.55714 18.433 3.36964 18.4736 3.38377 12.5986 1.75877 12.6316 1.76612 6.38163 0.703619 6.41812 0.707769-0.0193846 0.332769ZM61.406 28.8764 69.0625 33.5 60.7697 36.851Z" transform="matrix(1.83697e-16 1 1 -1.83697e-16 608.5 272.5)"/><path d="M699.597 288.526 699.221 293.299 698.211 297.906 696.633 302.199 694.546 306.118 692.075 309.35 689.338 311.896 686.381 313.567 683.39 314.14 680.453 314.702 680.554 314.665 677.679 316.29 677.742 316.244 675.055 318.744 675.094 318.7 672.657 321.95 672.685 321.905 670.685 325.717 670.703 325.676 669.141 329.989 669.156 329.933 668.685 332.578 668.028 332.461 668.504 329.788 670.084 325.428 672.107 321.571 674.579 318.276 677.317 315.729 680.274 314.058 683.265 313.485 686.202 312.923 686.101 312.96 688.976 311.335 688.913 311.381 691.6 308.881 691.563 308.923 694 305.735 693.971 305.781 696.033 301.906 696.015 301.947 697.577 297.697 697.564 297.741 698.564 293.179 698.558 293.224 698.933 288.474ZM672.5 331.741 667.453 339.125 664.574 330.656Z"/></g></svg>