<svg width="1280" height="720" xmlns="http://www.w3.org/2000/svg" xmlns:xlink="http://www.w3.org/1999/xlink" overflow="hidden"><defs><clipPath id="clip0"><rect x="0" y="0" width="1280" height="720"/></clipPath><clipPath id="clip1"><rect x="685" y="219" width="48" height="48"/></clipPath><clipPath id="clip2"><rect x="685" y="219" width="48" height="48"/></clipPath><clipPath id="clip3"><rect x="685" y="219" width="48" height="48"/></clipPath><linearGradient x1="187.5" y1="188.5" x2="187.5" y2="282.5" gradientUnits="userSpaceOnUse" spreadMethod="reflect" id="fill4"><stop offset="0" stop-color="#B1CBE9"/><stop offset="0.5" stop-color="#A3C1E5"/><stop offset="1" stop-color="#92B9E4"/></linearGradient><linearGradient x1="187.5" y1="188.5" x2="187.5" y2="282.5" gradientUnits="userSpaceOnUse" spreadMethod="reflect" id="fill5"><stop offset="0" stop-color="#8EA3BB"/><stop offset="0.5" stop-color="#839BB8"/><stop offset="1" stop-color="#7595B7"/></linearGradient><linearGradient x1="187.5" y1="188.5" x2="187.5" y2="282.5" gradientUnits="userSpaceOnUse" spreadMethod="reflect" id="fill6"><stop offset="0" stop-color="#C0D5ED"/><stop offset="0.5" stop-color="#B5CDEA"/><stop offset="1" stop-color="#A7C7E9"/></linearGradient><clipPath id="clip7"><rect x="102" y="199" width="58" height="57"/></clipPath><clipPath id="clip8"><rect x="102" y="199" width="58" height="57"/></clipPath><clipPath id="clip9"><rect x="102" y="199" width="58" height="57"/></clipPath><linearGradient x1="269.5" y1="306.5" x2="269.5" y2="399.5" gradientUnits="userSpaceOnUse" spreadMethod="reflect" id="fill10"><stop offset="0" stop-color="#B1CBE9"/><stop offset="0.5" stop-color="#A3C1E5"/><stop offset="1" stop-color="#92B9E4"/></linearGradient><linearGradient x1="269.5" y1="306.5" x2="269.5" y2="399.5" gradientUnits="userSpaceOnUse" spreadMethod="reflect" id="fill11"><stop offset="0" stop-color="#8EA3BB"/><stop offset="0.5" stop-color="#839BB8"/><stop offset="1" stop-color="#7595B7"/></linearGradient><linearGradient x1="269.5" y1="306.5" x2="269.5" y2="399.5" gradientUnits="userSpaceOnUse" spreadMethod="reflect" id="fill12"><stop offset="0" stop-color="#C0D5ED"/><stop offset="0.5" stop-color="#B5CDEA"/><stop offset="1" stop-color="#A7C7E9"/></linearGradient><clipPath id="clip13"><rect x="102" y="316" width="58" height="58"/></clipPath><clipPath id="clip14"><rect x="102" y="316" width="58" height="58"/></clipPath><clipPath id="clip15"><rect x="102" y="316" width="58" height="58"/></clipPath><clipPath id="clip16"><rect x="263" y="318" width="54" height="54"/></clipPath><clipPath id="clip17"><rect x="263" y="318" width="54" height="54"/></clipPath><clipPath id="clip18"><rect x="263" y="318" width="54" height="54"/></clipPath><linearGradient x1="523" y1="417.5" x2="523" y2="511.5" gradientUnits="userSpaceOnUse" spreadMethod="reflect" id="fill19"><stop offset="0" stop-color="#B1CBE9"/><stop offset="0.5" stop-color="#A3C1E5"/><stop offset="1" stop-color="#92B9E4"/></linearGradient><linearGradient x1="523" y1="417.5" x2="523" y2="511.5" gradientUnits="userSpaceOnUse" spreadMethod="reflect" id="fill20"><stop offset="0" stop-color="#8EA3BB"/><stop offset="0.5" stop-color="#839BB8"/><stop offset="1" stop-color="#7595B7"/></linearGradient><linearGradient x1="523" y1="417.5" x2="523" y2="511.5" gradientUnits="userSpaceOnUse" spreadMethod="reflect" id="fill21"><stop offset="0" stop-color="#C0D5ED"/><stop offset="0.5" stop-color="#B5CDEA"/><stop offset="1" stop-color="#A7C7E9"/></linearGradient><clipPath id="clip22"><rect x="444" y="427" width="57" height="58"/></clipPath><clipPath id="clip23"><rect x="444" y="427" width="57" height="58"/></clipPath><clipPath id="clip24"><rect x="444" y="427" width="57" height="58"/></clipPath><linearGradient x1="186.5" y1="418.5" x2="186.5" y2="511.5" gradientUnits="userSpaceOnUse" spreadMethod="reflect" id="fill25"><stop offset="0" stop-color="#B1CBE9"/><stop offset="0.5" stop-color="#A3C1E5"/><stop offset="1" stop-color="#92B9E4"/></linearGradient><linearGradient x1="186.5" y1="418.5" x2="186.5" y2="511.5" gradientUnits="userSpaceOnUse" spreadMethod="reflect" id="fill26"><stop offset="0" stop-color="#8EA3BB"/><stop offset="0.5" stop-color="#839BB8"/><stop offset="1" stop-color="#7595B7"/></linearGradient><linearGradient x1="186.5" y1="418.5" x2="186.5" y2="511.5" gradientUnits="userSpaceOnUse" spreadMethod="reflect" id="fill27"><stop offset="0" stop-color="#C0D5ED"/><stop offset="0.5" stop-color="#B5CDEA"/><stop offset="1" stop-color="#A7C7E9"/></linearGradient><clipPath id="clip28"><rect x="102" y="428" width="58" height="58"/></clipPath><clipPath id="clip29"><rect x="102" y="428" width="58" height="58"/></clipPath><clipPath id="clip30"><rect x="102" y="428" width="58" height="58"/></clipPath><linearGradient x1="187.5" y1="532.5" x2="187.5" y2="626.5" gradientUnits="userSpaceOnUse" spreadMethod="reflect" id="fill31"><stop offset="0" stop-color="#B1CBE9"/><stop offset="0.5" stop-color="#A3C1E5"/><stop offset="1" stop-color="#92B9E4"/></linearGradient><linearGradient x1="187.5" y1="532.5" x2="187.5" y2="626.5" gradientUnits="userSpaceOnUse" spreadMethod="reflect" id="fill32"><stop offset="0" stop-color="#8EA3BB"/><stop offset="0.5" stop-color="#839BB8"/><stop offset="1" stop-color="#7595B7"/></linearGradient><linearGradient x1="187.5" y1="532.5" x2="187.5" y2="626.5" gradientUnits="userSpaceOnUse" spreadMethod="reflect" id="fill33"><stop offset="0" stop-color="#C0D5ED"/><stop offset="0.5" stop-color="#B5CDEA"/><stop offset="1" stop-color="#A7C7E9"/></linearGradient><clipPath id="clip34"><rect x="102" y="542" width="58" height="58"/></clipPath><clipPath id="clip35"><rect x="102" y="542" width="58" height="58"/></clipPath><clipPath id="clip36"><rect x="102" y="542" width="58" height="58"/></clipPath><linearGradient x1="723" y1="531.5" x2="723" y2="625.5" gradientUnits="userSpaceOnUse" spreadMethod="reflect" id="fill37"><stop offset="0" stop-color="#B1CBE9"/><stop offset="0.5" stop-color="#A3C1E5"/><stop offset="1" stop-color="#92B9E4"/></linearGradient><linearGradient x1="723" y1="531.5" x2="723" y2="625.5" gradientUnits="userSpaceOnUse" spreadMethod="reflect" id="fill38"><stop offset="0" stop-color="#8EA3BB"/><stop offset="0.5" stop-color="#839BB8"/><stop offset="1" stop-color="#7595B7"/></linearGradient><linearGradient x1="723" y1="531.5" x2="723" y2="625.5" gradientUnits="userSpaceOnUse" spreadMethod="reflect" id="fill39"><stop offset="0" stop-color="#C0D5ED"/><stop offset="0.5" stop-color="#B5CDEA"/><stop offset="1" stop-color="#A7C7E9"/></linearGradient><clipPath id="clip40"><rect x="644" y="541" width="58" height="58"/></clipPath><clipPath id="clip41"><rect x="644" y="541" width="58" height="58"/></clipPath><clipPath id="clip42"><rect x="644" y="541" width="58" height="58"/></clipPath><linearGradient x1="458.5" y1="549.5" x2="458.5" y2="587.5" gradientUnits="userSpaceOnUse" spreadMethod="reflect" id="fill43"><stop offset="0" stop-color="#B1CBE9"/><stop offset="0.5" stop-color="#A3C1E5"/><stop offset="1" stop-color="#92B9E4"/></linearGradient><linearGradient x1="458.5" y1="549.5" x2="458.5" y2="587.5" gradientUnits="userSpaceOnUse" spreadMethod="reflect" id="fill44"><stop offset="0" stop-color="#8EA3BB"/><stop offset="0.5" stop-color="#839BB8"/><stop offset="1" stop-color="#7595B7"/></linearGradient><linearGradient x1="458.5" y1="549.5" x2="458.5" y2="587.5" gradientUnits="userSpaceOnUse" spreadMethod="reflect" id="fill45"><stop offset="0" stop-color="#C0D5ED"/><stop offset="0.5" stop-color="#B5CDEA"/><stop offset="1" stop-color="#A7C7E9"/></linearGradient><clipPath id="clip46"><rect x="683" y="267" width="51" height="50"/></clipPath><clipPath id="clip47"><rect x="683" y="267" width="51" height="50"/></clipPath><clipPath id="clip48"><rect x="683" y="267" width="51" height="50"/></clipPath><clipPath id="clip49"><rect x="687" y="372" width="50" height="51"/></clipPath><clipPath id="clip50"><rect x="687" y="372" width="50" height="51"/></clipPath><clipPath id="clip51"><rect x="687" y="372" width="50" height="51"/></clipPath><clipPath id="clip52"><rect x="685" y="318" width="49" height="49"/></clipPath><clipPath id="clip53"><rect x="685" y="318" width="49" height="49"/></clipPath><clipPath id="clip54"><rect x="685" y="318" width="49" height="49"/></clipPath></defs><g clip-path="url(#clip0)"><rect x="0" y="0" width="1280" height="720" fill="#FFFFFF"/><g clip-path="url(#clip1)"><g clip-path="url(#clip2)"><g clip-path="url(#clip3)"><path d="M705.5 232.5 715.5 238.95 705.5 245.405 705.5 232.5Z"/><path d="M723 230 723 248 695 248 695 230ZM727 249 726 249 726 228.5 727 228.5C727.552 228.5 728 228.052 728 227.5 728 226.948 727.552 226.5 727 226.5L710 226.5 710 225.5C710 224.948 709.552 224.5 709 224.5 708.448 224.5 708 224.948 708 225.5L708 226.5 691 226.5C690.448 226.5 690 226.948 690 227.5 690 228.052 690.448 228.5 691 228.5L692 228.5 692 249 691 249C690.448 249 690 249.448 690 250 690 250.552 690.448 251 691 251L706.27 251 698.57 258.7C698.179 259.095 698.183 259.732 698.578 260.122 698.972 260.513 699.609 260.51 700 260.115L708 252.115 708 261C708 261.552 708.448 262 709 262 709.552 262 710 261.552 710 261L710 252.1 718 260.1C718.391 260.491 719.024 260.491 719.415 260.1 719.806 259.709 719.806 259.076 719.415 258.685L711.73 251 727 251C727.552 251 728 250.552 728 250 728 249.448 727.552 249 727 249Z"/></g></g></g><text font-family="Calibri,Calibri_MSFontService,sans-serif" font-style="italic" font-weight="400" font-size="16" transform="translate(737.601 249)">Video<tspan font-size="43" x="-182.037" y="85">…</tspan></text><rect x="61.5001" y="194.293" width="246.207" height="88.2068" fill="url(#fill4)"/><path d="M307.707 194.293 313.5 188.5 313.5 276.707 307.707 282.5Z" fill="url(#fill5)" fill-rule="evenodd"/><path d="M61.5001 194.293 67.2932 188.5 313.5 188.5 307.707 194.293Z" fill="url(#fill6)" fill-rule="evenodd"/><path d="M61.5001 194.293 67.2932 188.5 313.5 188.5 313.5 276.707 307.707 282.5 61.5001 282.5ZM61.5001 194.293 307.707 194.293 313.5 188.5M307.707 194.293 307.707 282.5" stroke="#5B9BD5" stroke-width="0.666667" stroke-miterlimit="8" fill="none" fill-rule="evenodd"/><g clip-path="url(#clip7)"><g clip-path="url(#clip8)"><g clip-path="url(#clip9)"><path d="M13.6562 48.6875 13.6562 8.3125 28.5 8.3125 28.5 20.7812 43.3438 20.7812 43.3438 48.6875 13.6562 48.6875ZM32.0625 9.79688 39.4844 17.2188 32.0625 17.2188 32.0625 9.79688ZM32.0625 4.75 10.0938 4.75 10.0938 52.25 46.9062 52.25 46.9062 17.8125 32.0625 4.75Z" transform="matrix(1.01754 0 0 1 102 199)"/><path d="M17.2188 26.7188 39.7812 26.7188 39.7812 29.0938 17.2188 29.0938Z" transform="matrix(1.01754 0 0 1 102 199)"/><path d="M17.2188 21.9688 24.9375 21.9688 24.9375 24.3438 17.2188 24.3438Z" transform="matrix(1.01754 0 0 1 102 199)"/><path d="M17.2188 31.4688 39.7812 31.4688 39.7812 33.8438 17.2188 33.8438Z" transform="matrix(1.01754 0 0 1 102 199)"/><path d="M17.2188 36.2188 39.7812 36.2188 39.7812 38.5938 17.2188 38.5938Z" transform="matrix(1.01754 0 0 1 102 199)"/><path d="M17.2188 40.9688 39.7812 40.9688 39.7812 43.3438 17.2188 43.3438Z" transform="matrix(1.01754 0 0 1 102 199)"/></g></g></g><text font-family="Calibri,Calibri_MSFontService,sans-serif" font-weight="400" font-size="16" transform="translate(76.3455 271)">Nutzungskonzept<tspan font-style="italic" font-size="43" x="130.4" y="-21">+</tspan><tspan font-style="italic" font-size="43" x="180.059" y="-20">…</tspan></text><rect x="60.5001" y="312.232" width="412.268" height="87.2685" fill="url(#fill10)"/><path d="M472.769 312.232 478.5 306.5 478.5 393.769 472.769 399.5Z" fill="url(#fill11)" fill-rule="evenodd"/><path d="M60.5001 312.232 66.2316 306.5 478.5 306.5 472.769 312.232Z" fill="url(#fill12)" fill-rule="evenodd"/><path d="M60.5001 312.232 66.2316 306.5 478.5 306.5 478.5 393.769 472.769 399.5 60.5001 399.5ZM60.5001 312.232 472.769 312.232 478.5 306.5M472.769 312.232 472.769 399.5" stroke="#5B9BD5" stroke-width="0.666667" stroke-miterlimit="8" fill="none" fill-rule="evenodd"/><g clip-path="url(#clip13)"><g clip-path="url(#clip14)"><g clip-path="url(#clip15)"><path d="M115.896 365.542 115.896 324.458 131 324.458 131 337.146 146.104 337.146 146.104 365.542 115.896 365.542ZM134.625 325.969 142.177 333.521 134.625 333.521 134.625 325.969ZM134.625 320.833 112.271 320.833 112.271 369.167 149.729 369.167 149.729 334.125 134.625 320.833Z"/><path d="M119.521 343.188 142.479 343.188 142.479 345.604 119.521 345.604Z"/><path d="M119.521 338.354 127.375 338.354 127.375 340.771 119.521 340.771Z"/><path d="M119.521 348.021 142.479 348.021 142.479 350.438 119.521 350.438Z"/><path d="M119.521 352.854 142.479 352.854 142.479 355.271 119.521 355.271Z"/><path d="M119.521 357.688 142.479 357.688 142.479 360.104 119.521 360.104Z"/></g></g></g><text font-family="Calibri,Calibri_MSFontService,sans-serif" font-weight="400" font-size="16" transform="translate(75.8239 389)">Nutzungskonzept<tspan font-style="italic" font-size="43" x="285.055" y="-22">+</tspan><tspan font-style="italic" font-size="43" x="325.992" y="-17">…</tspan><tspan font-style="italic" font-size="43" x="119.816" y="-24">+</tspan></text><g clip-path="url(#clip16)"><g clip-path="url(#clip17)"><g clip-path="url(#clip18)"><path d="M275.938 364.125 275.938 325.875 290 325.875 290 337.688 304.062 337.688 304.062 364.125 275.938 364.125ZM293.375 327.281 300.406 334.312 293.375 334.312 293.375 327.281ZM293.375 322.5 272.562 322.5 272.562 367.5 307.438 367.5 307.438 334.875 293.375 322.5Z"/><path d="M279.312 343.312 300.688 343.312 300.688 345.562 279.312 345.562Z"/><path d="M279.312 338.812 286.625 338.812 286.625 341.062 279.312 341.062Z"/><path d="M279.312 347.812 300.688 347.812 300.688 350.062 279.312 350.062Z"/><path d="M279.312 352.312 300.688 352.312 300.688 354.562 279.312 354.562Z"/><path d="M279.312 356.812 300.688 356.812 300.688 359.062 279.312 359.062Z"/></g></g></g><text font-family="Calibri,Calibri_MSFontService,sans-serif" font-weight="400" font-size="16" transform="translate(228.201 388)">Unterrichtskonzept</text><rect x="402.5" y="423.293" width="235.207" height="88.2067" fill="url(#fill19)"/><path d="M637.707 423.293 643.5 417.5 643.5 505.707 637.707 511.5Z" fill="url(#fill20)" fill-rule="evenodd"/><path d="M402.5 423.293 408.293 417.5 643.5 417.5 637.707 423.293Z" fill="url(#fill21)" fill-rule="evenodd"/><path d="M402.5 423.293 408.293 417.5 643.5 417.5 643.5 505.707 637.707 511.5 402.5 511.5ZM402.5 423.293 637.707 423.293 643.5 417.5M637.707 423.293 637.707 511.5" stroke="#5B9BD5" stroke-width="0.666667" stroke-miterlimit="8" fill="none" fill-rule="evenodd"/><g clip-path="url(#clip22)"><g clip-path="url(#clip23)"><g clip-path="url(#clip24)"><path d="M13.6562 48.6875 13.6562 8.3125 28.5 8.3125 28.5 20.7812 43.3438 20.7812 43.3438 48.6875 13.6562 48.6875ZM32.0625 9.79688 39.4844 17.2188 32.0625 17.2188 32.0625 9.79688ZM32.0625 4.75 10.0938 4.75 10.0938 52.25 46.9062 52.25 46.9062 17.8125 32.0625 4.75Z" transform="matrix(1 0 0 1.01754 444 427)"/><path d="M17.2188 26.7188 39.7812 26.7188 39.7812 29.0938 17.2188 29.0938Z" transform="matrix(1 0 0 1.01754 444 427)"/><path d="M17.2188 21.9688 24.9375 21.9688 24.9375 24.3438 17.2188 24.3438Z" transform="matrix(1 0 0 1.01754 444 427)"/><path d="M17.2188 31.4688 39.7812 31.4688 39.7812 33.8438 17.2188 33.8438Z" transform="matrix(1 0 0 1.01754 444 427)"/><path d="M17.2188 36.2188 39.7812 36.2188 39.7812 38.5938 17.2188 38.5938Z" transform="matrix(1 0 0 1.01754 444 427)"/><path d="M17.2188 40.9688 39.7812 40.9688 39.7812 43.3438 17.2188 43.3438Z" transform="matrix(1 0 0 1.01754 444 427)"/></g></g></g><text font-family="Calibri,Calibri_MSFontService,sans-serif" font-weight="400" font-size="16" transform="translate(411.574 500)">Unterrichtskonzept<tspan font-style="italic" font-size="43" x="176.447" y="-20">…</tspan><tspan font-style="italic" font-size="43" x="125.956" y="-23">+</tspan></text><rect x="60.5001" y="424.232" width="246.269" height="87.2686" fill="url(#fill25)"/><path d="M306.769 424.232 312.5 418.5 312.5 505.769 306.769 511.5Z" fill="url(#fill26)" fill-rule="evenodd"/><path d="M60.5001 424.232 66.2315 418.5 312.5 418.5 306.769 424.232Z" fill="url(#fill27)" fill-rule="evenodd"/><path d="M60.5001 424.232 66.2315 418.5 312.5 418.5 312.5 505.769 306.769 511.5 60.5001 511.5ZM60.5001 424.232 306.769 424.232 312.5 418.5M306.769 424.232 306.769 511.5" stroke="#5B9BD5" stroke-width="0.666667" stroke-miterlimit="8" fill="none" fill-rule="evenodd"/><g clip-path="url(#clip28)"><g clip-path="url(#clip29)"><g clip-path="url(#clip30)"><path d="M115.896 477.542 115.896 436.458 131 436.458 131 449.146 146.104 449.146 146.104 477.542 115.896 477.542ZM134.625 437.969 142.177 445.521 134.625 445.521 134.625 437.969ZM134.625 432.833 112.271 432.833 112.271 481.167 149.729 481.167 149.729 446.125 134.625 432.833Z"/><path d="M119.521 455.188 142.479 455.188 142.479 457.604 119.521 457.604Z"/><path d="M119.521 450.354 127.375 450.354 127.375 452.771 119.521 452.771Z"/><path d="M119.521 460.021 142.479 460.021 142.479 462.438 119.521 462.438Z"/><path d="M119.521 464.854 142.479 464.854 142.479 467.271 119.521 467.271Z"/><path d="M119.521 469.688 142.479 469.688 142.479 472.104 119.521 472.104Z"/></g></g></g><text font-family="Calibri,Calibri_MSFontService,sans-serif" font-weight="400" font-size="16" transform="translate(75.7862 501)">Nutzungskonzept<tspan font-style="italic" font-size="43" x="130.4" y="-22">+</tspan><tspan font-style="italic" font-size="43" x="180.059" y="-21">…</tspan></text><rect x="61.5001" y="538.293" width="246.207" height="88.2068" fill="url(#fill31)"/><path d="M307.707 538.293 313.5 532.5 313.5 620.707 307.707 626.5Z" fill="url(#fill32)" fill-rule="evenodd"/><path d="M61.5001 538.293 67.2932 532.5 313.5 532.5 307.707 538.293Z" fill="url(#fill33)" fill-rule="evenodd"/><path d="M61.5001 538.293 67.2932 532.5 313.5 532.5 313.5 620.707 307.707 626.5 61.5001 626.5ZM61.5001 538.293 307.707 538.293 313.5 532.5M307.707 538.293 307.707 626.5" stroke="#5B9BD5" stroke-width="0.666667" stroke-miterlimit="8" fill="none" fill-rule="evenodd"/><g clip-path="url(#clip34)"><g clip-path="url(#clip35)"><g clip-path="url(#clip36)"><path d="M115.896 591.542 115.896 550.458 131 550.458 131 563.146 146.104 563.146 146.104 591.542 115.896 591.542ZM134.625 551.969 142.177 559.521 134.625 559.521 134.625 551.969ZM134.625 546.833 112.271 546.833 112.271 595.167 149.729 595.167 149.729 560.125 134.625 546.833Z"/><path d="M119.521 569.188 142.479 569.188 142.479 571.604 119.521 571.604Z"/><path d="M119.521 564.354 127.375 564.354 127.375 566.771 119.521 566.771Z"/><path d="M119.521 574.021 142.479 574.021 142.479 576.438 119.521 576.438Z"/><path d="M119.521 578.854 142.479 578.854 142.479 581.271 119.521 581.271Z"/><path d="M119.521 583.688 142.479 583.688 142.479 586.104 119.521 586.104Z"/></g></g></g><text font-family="Calibri,Calibri_MSFontService,sans-serif" font-weight="400" font-size="16" transform="translate(76.3455 615)">Nutzungskonzept<tspan font-style="italic" font-size="43" x="130.4" y="-22">+</tspan><tspan font-style="italic" font-size="43" x="180.059" y="-20">…</tspan></text><rect x="602.5" y="537.293" width="235.207" height="88.2067" fill="url(#fill37)"/><path d="M837.707 537.293 843.5 531.5 843.5 619.707 837.707 625.5Z" fill="url(#fill38)" fill-rule="evenodd"/><path d="M602.5 537.293 608.293 531.5 843.5 531.5 837.707 537.293Z" fill="url(#fill39)" fill-rule="evenodd"/><path d="M602.5 537.293 608.293 531.5 843.5 531.5 843.5 619.707 837.707 625.5 602.5 625.5ZM602.5 537.293 837.707 537.293 843.5 531.5M837.707 537.293 837.707 625.5" stroke="#5B9BD5" stroke-width="0.666667" stroke-miterlimit="8" fill="none" fill-rule="evenodd"/><g clip-path="url(#clip40)"><g clip-path="url(#clip41)"><g clip-path="url(#clip42)"><path d="M657.896 590.542 657.896 549.458 673 549.458 673 562.146 688.104 562.146 688.104 590.542 657.896 590.542ZM676.625 550.969 684.177 558.521 676.625 558.521 676.625 550.969ZM676.625 545.833 654.271 545.833 654.271 594.167 691.729 594.167 691.729 559.125 676.625 545.833Z"/><path d="M661.521 568.188 684.479 568.188 684.479 570.604 661.521 570.604Z"/><path d="M661.521 563.354 669.375 563.354 669.375 565.771 661.521 565.771Z"/><path d="M661.521 573.021 684.479 573.021 684.479 575.438 661.521 575.438Z"/><path d="M661.521 577.854 684.479 577.854 684.479 580.271 661.521 580.271Z"/><path d="M661.521 582.688 684.479 582.688 684.479 585.104 661.521 585.104Z"/></g></g></g><text font-family="Calibri,Calibri_MSFontService,sans-serif" font-weight="400" font-size="16" transform="translate(611.798 614)">Unterrichtskonzept<tspan font-style="italic" font-size="43" x="176.447" y="-19">…</tspan><tspan font-style="italic" font-size="43" x="125.956" y="-23">+</tspan></text><path d="M6.66666-0.333324 12-0.333317 12 0.333349 6.66666 0.333342ZM14-0.333315 19.3333-0.333307 19.3333 0.333359 14 0.333352ZM21.3333-0.333305 26.6667-0.333298 26.6667 0.333369 21.3333 0.333362ZM28.6667-0.333295 34-0.333288 34 0.333379 28.6667 0.333372ZM36-0.333285 41.3333-0.333278 41.3333 0.333389 36 0.333382ZM43.3333-0.333275 48.6667-0.333268 48.6667 0.333399 43.3333 0.333392ZM50.6667-0.333265 56-0.333258 56 0.333409 50.6667 0.333401ZM58-0.333255 63.3333-0.333248 63.3333 0.333418 58 0.333411ZM65.3333-0.333246 70.6666-0.333238 70.6666 0.333428 65.3333 0.333421ZM7.99999 4.00001 0 0 8.00001-3.99999ZM70.1741-3.99991 78.1741 0.000104987 70.1741 4.00009Z" transform="matrix(-1 0 0 1 395.674 467.5)"/><path d="M6.66666-0.333327 12-0.333321 12 0.333345 6.66666 0.33334ZM14-0.333319 19.3333-0.333314 19.3333 0.333353 14 0.333347ZM21.3333-0.333312 26.6667-0.333307 26.6667 0.33336 21.3333 0.333355ZM28.6667-0.333305 34-0.333299 34 0.333367 28.6667 0.333362ZM36-0.333297 41.3333-0.333292 41.3333 0.333375 36 0.333369ZM43.3333-0.33329 48.6667-0.333284 48.6667 0.333382 43.3333 0.333377ZM50.6667-0.333282 56-0.333277 56 0.33339 50.6667 0.333384ZM58-0.333275 63.3333-0.33327 63.3333 0.333397 58 0.333392ZM65.3333-0.333268 70.6666-0.333262 70.6666 0.333404 65.3333 0.333399ZM72.6666-0.33326 78-0.333255 78 0.333412 72.6666 0.333406ZM80-0.333253 85.3333-0.333248 85.3333 0.333419 80 0.333414ZM87.3333-0.333246 92.6666-0.33324 92.6666 0.333426 87.3333 0.333421ZM94.6666-0.333238 97.9381-0.333235 97.9381 0.333432 94.6666 0.333428ZM8 4.00001 0 0 8-3.99999ZM96.6047-3.9999 104.605 0.000104987 96.6047 4.0001Z" transform="matrix(-1 0 0 1 422.105 566.5)"/><rect x="425.5" y="551.842" width="63.6581" height="35.6581" fill="url(#fill43)"/><path d="M489.158 551.842 491.5 549.5 491.5 585.158 489.158 587.5Z" fill="url(#fill44)" fill-rule="evenodd"/><path d="M425.5 551.842 427.842 549.5 491.5 549.5 489.158 551.842Z" fill="url(#fill45)" fill-rule="evenodd"/><path d="M425.5 551.842 427.842 549.5 491.5 549.5 491.5 585.158 489.158 587.5 425.5 587.5ZM425.5 551.842 489.158 551.842 491.5 549.5M489.158 551.842 489.158 587.5" stroke="#5B9BD5" stroke-width="0.666667" stroke-miterlimit="8" fill="none" fill-rule="evenodd"/><text font-family="Calibri,Calibri_MSFontService,sans-serif" font-style="italic" font-weight="400" font-size="43" transform="translate(443.539 575)">…<tspan font-size="21" x="149.674" y="-242">z.B.</tspan><tspan font-size="16" x="295.451" y="-275">Abbildung</tspan></text><g clip-path="url(#clip46)"><g clip-path="url(#clip47)"><g clip-path="url(#clip48)"><path d="M40.625 34.1667 33.4948 22.8021C33.3672 22.5938 33.14 22.4674 32.8958 22.4687 32.6505 22.4686 32.4223 22.5945 32.2917 22.8021L30.2083 26.1458 34.6771 33.375C35.0553 33.9469 35.1366 34.6653 34.8958 35.3073L39.9479 35.3073C40.3616 35.328 40.7137 35.0093 40.7344 34.5956 40.7419 34.4449 40.7038 34.2954 40.625 34.1667Z" transform="matrix(1.02 0 0 1 683 267)"/><path d="M32.8646 34.2344 21.5365 15.8021C21.3911 15.6143 21.1644 15.5078 20.9271 15.5156L20.8333 15.5156 20.7396 15.5156C20.5022 15.5078 20.2756 15.6143 20.1302 15.8021L8.80208 34.2344C8.64161 34.4589 8.61953 34.7541 8.74479 35 8.87115 35.2228 9.12161 35.3449 9.375 35.3073L32.2917 35.3073C32.5451 35.3449 32.7955 35.2228 32.9219 35 33.0471 34.7541 33.0251 34.4589 32.8646 34.2344ZM22.7292 24.4375 20.9271 26.0417 19.125 24.4375 16.1458 26.2396 20.8333 18.6406 25.3958 26.0417Z" transform="matrix(1.02 0 0 1 683 267)"/><path d="M15.625 16.6667C15.625 17.5296 14.9254 18.2292 14.0625 18.2292 13.1996 18.2292 12.5 17.5296 12.5 16.6667 12.5 15.8037 13.1996 15.1042 14.0625 15.1042 14.9254 15.1042 15.625 15.8037 15.625 16.6667Z" transform="matrix(1.02 0 0 1 683 267)"/><path d="M7.29167 38.5417 7.29167 12.5 42.7083 12.5 42.7083 38.5417ZM45.8333 41.6667 45.8333 9.375 4.16667 9.375 4.16667 41.6667Z" transform="matrix(1.02 0 0 1 683 267)"/></g></g></g><text font-family="Calibri,Calibri_MSFontService,sans-serif" font-style="italic" font-weight="400" font-size="13" transform="translate(69.7574 298)">oder<tspan font-size="13" x="-3.52252" y="115">oder</tspan><tspan font-size="13" x="-4.28021" y="227">oder</tspan><tspan font-style="normal" font-size="15" x="330.446" y="246">autonomes Material</tspan><tspan font-size="16" x="669.694" y="50">Textdokument</tspan></text><g clip-path="url(#clip49)"><g clip-path="url(#clip50)"><g clip-path="url(#clip51)"><path d="M26.2552 21.3542 30.5052 25.6042C31.5479 24.42 32.1752 22.9277 32.2917 21.3542Z" transform="matrix(1 0 0 1.02 687 372)"/><path d="M24.4792 21.0469 24.4792 13.5677C20.4616 13.8439 17.4286 17.3247 17.7048 21.3423 17.981 25.3599 21.4619 28.3929 25.4795 28.1167 27.0655 28.0077 28.5724 27.3832 29.7708 26.3385Z" transform="matrix(1 0 0 1.02 687 372)"/><path d="M25.5208 20.3125 32.2917 20.3125C32.028 16.6924 29.1419 13.8174 25.5208 13.5677Z" transform="matrix(1 0 0 1.02 687 372)"/><path d="M39.5833 11.4583 39.5833 30.2083 10.4167 30.2083 10.4167 11.4583ZM43.75 31.25 42.7083 31.25 42.7083 9.89583 43.75 9.89583C44.3253 9.89583 44.7917 9.42948 44.7917 8.85417 44.7917 8.27885 44.3253 7.8125 43.75 7.8125L26.0417 7.8125 26.0417 6.77083C26.0417 6.19552 25.5753 5.72917 25 5.72917 24.4247 5.72917 23.9583 6.19552 23.9583 6.77083L23.9583 7.8125 6.25 7.8125C5.67469 7.8125 5.20833 8.27885 5.20833 8.85417 5.20833 9.42948 5.67469 9.89583 6.25 9.89583L7.29167 9.89583 7.29167 31.25 6.25 31.25C5.67469 31.25 5.20833 31.7164 5.20833 32.2917 5.20833 32.867 5.67469 33.3333 6.25 33.3333L22.1562 33.3333 14.1354 41.3542C13.7284 41.7655 13.7319 42.4289 14.1432 42.8359 14.5546 43.243 15.218 43.2395 15.625 42.8281L23.9583 34.4948 23.9583 43.75C23.9583 44.3253 24.4247 44.7917 25 44.7917 25.5753 44.7917 26.0417 44.3253 26.0417 43.75L26.0417 34.4792 34.375 42.8125C34.782 43.2195 35.4419 43.2195 35.849 42.8125 36.256 42.4055 36.256 41.7456 35.849 41.3385L27.8437 33.3333 43.75 33.3333C44.3253 33.3333 44.7917 32.867 44.7917 32.2917 44.7917 31.7164 44.3253 31.25 43.75 31.25Z" transform="matrix(1 0 0 1.02 687 372)"/></g></g></g><text font-family="Calibri,Calibri_MSFontService,sans-serif" font-style="italic" font-weight="400" font-size="16" transform="translate(743.331 403)">Präsentation</text><path d="M697.5 458.5C679.551 458.5 665 449.968 665 439.443L665 362.609C665 352.084 650.449 343.552 632.5 343.552 650.449 343.552 665 335.02 665 324.495L665 226.557C665 216.032 679.551 207.5 697.5 207.5" stroke="#000000" stroke-width="0.666667" stroke-miterlimit="8" fill="none" fill-rule="evenodd"/><text font-family="Calibri,Calibri_MSFontService,sans-serif" font-style="italic" font-weight="400" font-size="32" transform="translate(701.533 444)">…</text><path d="M595.494 612.165 590.161 612.139 590.164 611.473 595.497 611.498ZM588.161 612.13 582.828 612.104 582.831 611.438 588.164 611.463ZM580.828 612.095 575.494 612.069 575.498 611.403 580.831 611.428ZM573.494 612.06 568.161 612.034 568.164 611.368 573.498 611.393ZM566.161 612.025 560.828 611.999 560.831 611.333 566.164 611.358ZM558.828 611.99 553.495 611.964 553.498 611.298 558.831 611.323ZM551.495 611.955 546.161 611.929 546.165 611.263 551.498 611.288ZM544.161 611.92 538.828 611.894 538.831 611.228 544.165 611.253ZM536.828 611.885 531.495 611.859 531.498 611.193 536.831 611.218ZM529.495 611.85 524.162 611.824 524.165 611.158 529.498 611.183ZM522.162 611.815 516.828 611.789 516.832 611.123 522.165 611.148ZM514.828 611.78 509.495 611.754 509.498 611.088 514.832 611.113ZM507.495 611.745 502.162 611.719 502.165 611.053 507.498 611.078ZM500.162 611.71 494.829 611.684 494.832 611.018 500.165 611.043ZM492.829 611.675 487.495 611.649 487.499 610.983 492.832 611.008ZM485.495 611.64 480.162 611.614 480.165 610.948 485.499 610.973ZM478.162 611.605 472.829 611.579 472.832 610.913 478.165 610.938ZM470.829 611.57 465.496 611.544 465.499 610.878 470.832 610.903ZM463.496 611.535 458.162 611.509 458.166 610.843 463.499 610.868ZM456.163 611.5 450.829 611.474 450.832 610.808 456.166 610.833ZM448.829 611.465 443.496 611.439 443.499 610.773 448.832 610.798ZM441.496 611.43 436.163 611.404 436.166 610.738 441.499 610.763ZM434.163 611.395 428.829 611.369 428.833 610.703 434.166 610.728ZM426.83 611.36 421.496 611.334 421.499 610.668 426.833 610.693ZM419.496 611.325 414.163 611.299 414.166 610.633 419.499 610.658ZM412.163 611.29 406.83 611.264 406.833 610.598 412.166 610.623ZM404.83 611.255 399.496 611.229 399.5 610.563 404.833 610.588ZM397.497 611.22 392.163 611.194 392.166 610.528 397.5 610.553ZM390.163 611.185 384.83 611.159 384.833 610.493 390.166 610.518ZM382.83 611.15 377.497 611.124 377.5 610.458 382.833 610.483ZM375.497 611.115 370.163 611.089 370.167 610.423 375.5 610.448ZM368.163 611.08 362.83 611.054 362.833 610.388 368.167 610.413ZM360.83 611.045 355.497 611.019 355.5 610.353 360.833 610.378ZM353.497 611.01 348.164 610.984 348.167 610.318 353.5 610.343ZM346.164 610.975 340.83 610.949 340.834 610.283 346.167 610.308ZM338.83 610.94 333.497 610.914 333.5 610.248 338.834 610.273ZM331.497 610.905 326.164 610.88 326.167 610.213 331.5 610.238ZM324.164 610.87 323.165 610.865 323.168 610.199 324.167 610.203ZM594.182 607.825 602.163 611.863 594.144 615.825ZM324.481 614.538 316.5 610.5 324.519 606.538Z"/><path d="M6.66666-0.333327 12-0.333321 12 0.333345 6.66666 0.33334ZM14-0.333319 19.3333-0.333314 19.3333 0.333353 14 0.333347ZM21.3333-0.333312 26.6667-0.333307 26.6667 0.33336 21.3333 0.333355ZM28.6667-0.333305 34-0.333299 34 0.333367 28.6667 0.333362ZM36-0.333297 41.3333-0.333292 41.3333 0.333375 36 0.333369ZM43.3333-0.33329 48.6667-0.333284 48.6667 0.333382 43.3333 0.333377ZM50.6667-0.333282 56-0.333277 56 0.33339 50.6667 0.333384ZM58-0.333275 63.3333-0.33327 63.3333 0.333397 58 0.333392ZM65.3333-0.333268 70.6666-0.333262 70.6666 0.333404 65.3333 0.333399ZM72.6666-0.33326 78-0.333255 78 0.333412 72.6666 0.333406ZM80-0.333253 85.3333-0.333248 85.3333 0.333419 80 0.333414ZM87.3333-0.333246 92.6666-0.33324 92.6666 0.333426 87.3333 0.333421ZM94.6666-0.333238 97.9381-0.333235 97.9381 0.333432 94.6666 0.333428ZM8 4.00001 0 0 8-3.99999ZM96.6047-3.9999 104.605 0.000104987 96.6047 4.0001Z" transform="matrix(-1 0 0 1 600.105 567.5)"/><g clip-path="url(#clip52)"><g clip-path="url(#clip53)"><g clip-path="url(#clip54)"><path d="M11.7396 41.8542 11.7396 7.14583 24.5 7.14583 24.5 17.8646 37.2604 17.8646 37.2604 41.8542 11.7396 41.8542ZM27.5625 8.42188 33.9427 14.8021 27.5625 14.8021 27.5625 8.42188ZM27.5625 4.08333 8.67708 4.08333 8.67708 44.9167 40.3229 44.9167 40.3229 15.3125 27.5625 4.08333Z" transform="matrix(-1 0 0 1 734 318)"/><path d="M14.8021 22.9688 34.1979 22.9688 34.1979 25.0104 14.8021 25.0104Z" transform="matrix(-1 0 0 1 734 318)"/><path d="M14.8021 18.8854 21.4375 18.8854 21.4375 20.9271 14.8021 20.9271Z" transform="matrix(-1 0 0 1 734 318)"/><path d="M14.8021 27.0521 34.1979 27.0521 34.1979 29.0938 14.8021 29.0938Z" transform="matrix(-1 0 0 1 734 318)"/><path d="M14.8021 31.1354 34.1979 31.1354 34.1979 33.1771 14.8021 33.1771Z" transform="matrix(-1 0 0 1 734 318)"/><path d="M14.8021 35.2188 34.1979 35.2188 34.1979 37.2604 14.8021 37.2604Z" transform="matrix(-1 0 0 1 734 318)"/></g></g></g></g></svg>